<svg xmlns="http://www.w3.org/2000/svg" viewBox="0 0 448 512">
    <!-- Font Awesome Free 6.4.0 by @fontawesome - https://fontawesome.com License - https://fontawesome.com/license (Commercial License) Copyright 2023 Fonticons, Inc. -->
    <path fill="#0088cc" d="M319.4 320c-29.4-48.8-31-105-3.8-154.5C335 129.5 352 90.7 352 48c0-26.5-21.5-48-48-48c-28.7 0-54.6 15.6-67.9 41l-12.1 23.2-12.1-23.2C198.6 15.6 172.7 0 144 0c-26.5 0-48 21.5-48 48c0 42.7 17 81.5 36.4 117.5C159.5 215 158 271.2 128.6 320c-28 46.5-42.5 100-39.7 154.1c1.5 29.5 28.5 50.8 57.7 46.2l39.1-6.1c25.4-4 51.5-4 76.9 0l39.1 6.1c29.1 4.6 56.1-16.7 57.7-46.2c2.8-54.1-11.6-107.6-39.7-154.1z"/>
</svg>
